<?xml version="1.0" encoding="utf-8"?>
<!-- Generator: Adobe Illustrator 16.0.3, SVG Export Plug-In . SVG Version: 6.00 Build 0)  -->
<!DOCTYPE svg PUBLIC "-//W3C//DTD SVG 1.1//EN" "http://www.w3.org/Graphics/SVG/1.1/DTD/svg11.dtd">
<svg version="1.1" id="Layer_1" xmlns="http://www.w3.org/2000/svg" xmlns:xlink="http://www.w3.org/1999/xlink" x="0px" y="0px"
	 width="180px" height="100.167px" viewBox="0 0 180 100.167" enable-background="new 0 0 180 100.167" xml:space="preserve">
<g>
	<path fill="none" stroke="#000000" stroke-width="4" stroke-linecap="round" stroke-linejoin="round" stroke-miterlimit="10" d="
		M9.638,80.413l11.726-20.101h26.802l12.204,20.101h79.686c11.486,0,23.69-17.947,23.69-17.947l-19.383-37.569L8.202,11.735
		L2.459,2.402l145.254,14.837l-3.351,6.62"/>
	
		<polyline fill="none" stroke="#000000" stroke-width="4" stroke-linecap="round" stroke-linejoin="round" stroke-miterlimit="10" points="
		15.461,68.209 7.804,68.209 7.804,12.373 	"/>
	
		<polyline fill="none" stroke="#000000" stroke-width="4" stroke-linecap="round" stroke-linejoin="round" stroke-miterlimit="10" points="
		127.133,23.7 143.405,50.82 126.017,80.413 	"/>
	
		<polyline fill="none" stroke="#000000" stroke-width="4" stroke-linecap="round" stroke-linejoin="round" stroke-miterlimit="10" points="
		123.624,47.789 130.643,47.789 138.402,59.335 	"/>
	
		<line fill="none" stroke="#000000" stroke-width="4" stroke-linecap="round" stroke-linejoin="round" stroke-miterlimit="10" x1="120.593" y1="74.909" x2="129.379" y2="74.909"/>
	
		<polyline fill="none" stroke="#000000" stroke-width="4" stroke-linecap="round" stroke-linejoin="round" stroke-miterlimit="10" points="
		54.865,68.209 92.674,68.209 92.674,20.996 	"/>
	
		<polyline fill="none" stroke="#000000" stroke-width="4" stroke-linecap="round" stroke-linejoin="round" stroke-miterlimit="10" points="
		92.674,57.84 112.616,57.84 105.438,68.209 92.674,68.209 	"/>
	
		<line fill="none" stroke="#000000" stroke-width="4" stroke-linecap="round" stroke-linejoin="round" stroke-miterlimit="10" x1="7.804" y1="49.863" x2="92.674" y2="49.863"/>
	
		<circle fill="none" stroke="#000000" stroke-width="4" stroke-linecap="round" stroke-linejoin="round" stroke-miterlimit="10" cx="34.46" cy="82.209" r="15.554"/>
	
		<circle fill="none" stroke="#000000" stroke-width="4" stroke-linecap="round" stroke-linejoin="round" stroke-miterlimit="10" cx="34.459" cy="82.209" r="6.222"/>
	
		<circle fill="none" stroke="#000000" stroke-width="4" stroke-linecap="round" stroke-linejoin="round" stroke-miterlimit="10" cx="166.201" cy="85.358" r="11.406"/>
	
		<circle fill="none" stroke="#000000" stroke-width="4" stroke-linecap="round" stroke-linejoin="round" stroke-miterlimit="10" cx="166.202" cy="85.358" r="3.422"/>
	
		<polyline fill="none" stroke="#000000" stroke-width="4" stroke-linecap="round" stroke-linejoin="round" stroke-miterlimit="10" points="
		140.492,16.39 137.184,10.459 131.013,9.502 	"/>
	<path fill="none" stroke="#000000" stroke-width="4" stroke-miterlimit="10" d="M82.34,39.697H18.601
		c-2.79,0-5.05,4.393-5.05,9.812h73.841C87.392,44.09,85.131,39.697,82.34,39.697z"/>
	<path fill="none" stroke="#000000" stroke-width="4" stroke-linecap="round" stroke-linejoin="round" stroke-miterlimit="10" d="
		M160.118,67.701c0,0,9.253-2.71,14.523,1.82"/>
</g>
</svg>
