<?xml version="1.0" encoding="utf-8"?>
<!-- Generator: Adobe Illustrator 16.0.0, SVG Export Plug-In . SVG Version: 6.00 Build 0)  -->
<!DOCTYPE svg PUBLIC "-//W3C//DTD SVG 1.1//EN" "http://www.w3.org/Graphics/SVG/1.1/DTD/svg11.dtd">
<svg version="1.1" id="Layer_1" xmlns="http://www.w3.org/2000/svg" xmlns:xlink="http://www.w3.org/1999/xlink" x="0px" y="0px"
	 width="198px" height="196px" viewBox="0 0 198 196" enable-background="new 0 0 198 196" xml:space="preserve">
<circle fill="#3CA2DB" cx="98.648" cy="98.816" r="97.02"/>
<g>
	<path fill="none" stroke="#FFFFFF" stroke-width="4" stroke-linecap="round" stroke-linejoin="round" stroke-miterlimit="10" d="
		M37.621,122.84l8.901-15.258h20.345l9.264,15.258h60.488c8.719,0,17.982-13.623,17.982-13.623l-14.713-28.518L36.531,70.708
		l-4.359-7.085l110.26,11.263l-2.543,5.025"/>
	
		<polyline fill="none" stroke="#FFFFFF" stroke-width="4" stroke-linecap="round" stroke-linejoin="round" stroke-miterlimit="10" points="
		42.042,113.576 36.229,113.576 36.229,71.193 	"/>
	
		<polyline fill="none" stroke="#FFFFFF" stroke-width="4" stroke-linecap="round" stroke-linejoin="round" stroke-miterlimit="10" points="
		126.81,79.791 139.162,100.377 125.963,122.84 	"/>
	
		<polyline fill="none" stroke="#FFFFFF" stroke-width="4" stroke-linecap="round" stroke-linejoin="round" stroke-miterlimit="10" points="
		124.146,98.076 129.475,98.076 135.364,106.84 	"/>
	
		<line fill="none" stroke="#FFFFFF" stroke-width="4" stroke-linecap="round" stroke-linejoin="round" stroke-miterlimit="10" x1="121.846" y1="118.662" x2="128.515" y2="118.662"/>
	
		<polyline fill="none" stroke="#FFFFFF" stroke-width="4" stroke-linecap="round" stroke-linejoin="round" stroke-miterlimit="10" points="
		71.953,113.576 100.652,113.576 100.652,77.738 	"/>
	
		<polyline fill="none" stroke="#FFFFFF" stroke-width="4" stroke-linecap="round" stroke-linejoin="round" stroke-miterlimit="10" points="
		100.652,105.705 115.791,105.705 110.342,113.576 100.652,113.576 	"/>
	
		<line fill="none" stroke="#FFFFFF" stroke-width="4" stroke-linecap="round" stroke-linejoin="round" stroke-miterlimit="10" x1="36.229" y1="99.65" x2="100.652" y2="99.65"/>
	
		<circle fill="none" stroke="#FFFFFF" stroke-width="4" stroke-linecap="round" stroke-linejoin="round" stroke-miterlimit="10" cx="56.463" cy="124.203" r="11.807"/>
	
		<circle fill="none" stroke="#FFFFFF" stroke-width="4" stroke-linecap="round" stroke-linejoin="round" stroke-miterlimit="10" cx="56.463" cy="124.203" r="4.723"/>
	
		<circle fill="none" stroke="#FFFFFF" stroke-width="4" stroke-linecap="round" stroke-linejoin="round" stroke-miterlimit="10" cx="156.466" cy="126.594" r="8.659"/>
	
		<circle fill="none" stroke="#FFFFFF" stroke-width="4" stroke-linecap="round" stroke-linejoin="round" stroke-miterlimit="10" cx="156.467" cy="126.594" r="2.598"/>
	
		<polyline fill="none" stroke="#FFFFFF" stroke-width="4" stroke-linecap="round" stroke-linejoin="round" stroke-miterlimit="10" points="
		136.951,74.242 134.439,69.74 129.755,69.013 	"/>
	<path fill="none" stroke="#FFFFFF" stroke-width="4" stroke-miterlimit="10" d="M92.809,91.934H44.425
		c-2.118,0-3.833,3.334-3.833,7.447h56.051C96.643,95.268,94.927,91.934,92.809,91.934z"/>
	<path fill="none" stroke="#FFFFFF" stroke-width="4" stroke-linecap="round" stroke-linejoin="round" stroke-miterlimit="10" d="
		M151.849,113.191c0,0,7.023-2.057,11.024,1.381"/>
</g>
</svg>
